<mxfile host="app.diagrams.net" modified="2024-09-19T09:52:13.841Z" agent="Mozilla/5.0 (Windows NT 10.0; Win64; x64; rv:130.0) Gecko/20100101 Firefox/130.0" etag="GL1nhQz-YB188rlXX3NC" version="24.5.4" type="device">
  <diagram name="Page-1" id="edf60f1a-56cd-e834-aa8a-f176f3a09ee4">
    <mxGraphModel dx="1095" dy="748" grid="1" gridSize="10" guides="1" tooltips="1" connect="1" arrows="1" fold="1" page="1" pageScale="1" pageWidth="1100" pageHeight="850" background="none" math="0" shadow="0">
      <root>
        <mxCell id="0" />
        <mxCell id="1" parent="0" />
        <mxCell id="60e70716793133e9-31" style="edgeStyle=orthogonalEdgeStyle;rounded=0;html=1;labelBackgroundColor=none;startSize=5;endArrow=classicThin;endFill=1;endSize=5;jettySize=auto;orthogonalLoop=1;strokeWidth=1;fontFamily=Verdana;fontSize=8" parent="1" source="60e70716793133e9-2" target="60e70716793133e9-5" edge="1">
          <mxGeometry relative="1" as="geometry">
            <Array as="points">
              <mxPoint x="124" y="206" />
              <mxPoint x="244" y="206" />
            </Array>
          </mxGeometry>
        </mxCell>
        <mxCell id="60e70716793133e9-2" value="&lt;div&gt;&lt;br&gt;&lt;/div&gt;&lt;div&gt;NoGH: Default security group&lt;/div&gt;&lt;div&gt;&amp;nbsp;allows full connectivity&lt;/div&gt;&lt;div&gt;&amp;nbsp;between worker nodes&amp;nbsp;&lt;/div&gt;&lt;div&gt;on all ports&lt;/div&gt;&lt;div&gt;&lt;br&gt;&lt;/div&gt;" style="shape=trapezoid;whiteSpace=wrap;html=1;rounded=0;shadow=1;labelBackgroundColor=none;strokeWidth=1;fontFamily=Verdana;fontSize=8;align=center;flipV=1;" parent="1" vertex="1">
          <mxGeometry x="9" y="116" width="230" height="50" as="geometry" />
        </mxCell>
        <mxCell id="60e70716793133e9-32" style="edgeStyle=orthogonalEdgeStyle;rounded=0;html=1;labelBackgroundColor=none;startSize=5;endArrow=classicThin;endFill=1;endSize=5;jettySize=auto;orthogonalLoop=1;strokeWidth=1;fontFamily=Verdana;fontSize=8;exitX=0.567;exitY=0.02;exitDx=0;exitDy=0;exitPerimeter=0;" parent="1" source="qQcxlYCkUIQgtwHo2wwN-21" target="60e70716793133e9-5" edge="1">
          <mxGeometry relative="1" as="geometry">
            <Array as="points">
              <mxPoint x="348" y="206" />
              <mxPoint x="244" y="206" />
            </Array>
          </mxGeometry>
        </mxCell>
        <mxCell id="60e70716793133e9-4" value="Attackers gains access to Pod on cluster with N+1 nodes" style="rounded=0;whiteSpace=wrap;html=1;shadow=1;labelBackgroundColor=none;strokeWidth=1;fontFamily=Verdana;fontSize=8;align=center;" parent="1" vertex="1">
          <mxGeometry x="489" y="116" width="120" height="60" as="geometry" />
        </mxCell>
        <mxCell id="60e70716793133e9-33" value="Yes" style="edgeStyle=orthogonalEdgeStyle;rounded=0;html=1;labelBackgroundColor=none;startSize=5;endArrow=classicThin;endFill=1;endSize=5;jettySize=auto;orthogonalLoop=1;strokeWidth=1;fontFamily=Verdana;fontSize=8" parent="1" source="60e70716793133e9-5" target="60e70716793133e9-7" edge="1">
          <mxGeometry x="-0.7778" y="10" relative="1" as="geometry">
            <mxPoint as="offset" />
          </mxGeometry>
        </mxCell>
        <mxCell id="60e70716793133e9-5" value="&lt;div&gt;Is a deny-all&amp;nbsp;&lt;/div&gt;&lt;div&gt;NP enforced upon&amp;nbsp;&lt;/div&gt;&lt;div&gt;the Pod?&lt;/div&gt;" style="rhombus;whiteSpace=wrap;html=1;rounded=0;shadow=1;labelBackgroundColor=none;strokeWidth=1;fontFamily=Verdana;fontSize=8;align=center;" parent="1" vertex="1">
          <mxGeometry x="189" y="221" width="110" height="70" as="geometry" />
        </mxCell>
        <mxCell id="60e70716793133e9-34" value="Yes" style="edgeStyle=orthogonalEdgeStyle;rounded=0;html=1;labelBackgroundColor=none;startSize=5;endArrow=classicThin;endFill=1;endSize=5;jettySize=auto;orthogonalLoop=1;strokeWidth=1;fontFamily=Verdana;fontSize=8;entryX=0;entryY=0.5;entryDx=0;entryDy=0;" parent="1" source="60e70716793133e9-7" target="qQcxlYCkUIQgtwHo2wwN-89" edge="1">
          <mxGeometry x="-0.6667" y="10" relative="1" as="geometry">
            <mxPoint as="offset" />
            <mxPoint x="549" y="256" as="targetPoint" />
          </mxGeometry>
        </mxCell>
        <mxCell id="60e70716793133e9-35" value="No" style="edgeStyle=orthogonalEdgeStyle;rounded=0;html=1;labelBackgroundColor=none;startSize=5;endArrow=classicThin;endFill=1;endSize=5;jettySize=auto;orthogonalLoop=1;strokeWidth=1;fontFamily=Verdana;fontSize=8;entryX=0.5;entryY=0;entryDx=0;entryDy=0;entryPerimeter=0;" parent="1" source="60e70716793133e9-7" target="qQcxlYCkUIQgtwHo2wwN-28" edge="1">
          <mxGeometry x="-1" y="-10" relative="1" as="geometry">
            <mxPoint x="419" y="326" as="targetPoint" />
            <Array as="points" />
            <mxPoint as="offset" />
          </mxGeometry>
        </mxCell>
        <mxCell id="60e70716793133e9-7" value="&lt;div&gt;Does an NP&amp;nbsp;&lt;/div&gt;&lt;div&gt;allow the Pod to talk&amp;nbsp;&lt;/div&gt;&lt;div&gt;to kubelet port of&amp;nbsp;&lt;/div&gt;&lt;div&gt;any node?&lt;/div&gt;" style="rhombus;whiteSpace=wrap;html=1;rounded=0;shadow=1;labelBackgroundColor=none;strokeWidth=1;fontFamily=Verdana;fontSize=8;align=center;" parent="1" vertex="1">
          <mxGeometry x="359" y="216" width="120" height="80" as="geometry" />
        </mxCell>
        <mxCell id="qQcxlYCkUIQgtwHo2wwN-6" value="No" style="edgeStyle=orthogonalEdgeStyle;rounded=0;html=1;labelBackgroundColor=none;startSize=5;endArrow=classicThin;endFill=1;endSize=5;jettySize=auto;orthogonalLoop=1;strokeWidth=1;fontFamily=Verdana;fontSize=8;exitX=0.5;exitY=1;exitDx=0;exitDy=0;entryX=0;entryY=0.5;entryDx=0;entryDy=0;" edge="1" parent="1" source="60e70716793133e9-5" target="qQcxlYCkUIQgtwHo2wwN-89">
          <mxGeometry x="-1" y="-10" relative="1" as="geometry">
            <mxPoint x="244" y="326" as="targetPoint" />
            <Array as="points">
              <mxPoint x="244" y="420" />
              <mxPoint x="550" y="420" />
            </Array>
            <mxPoint as="offset" />
            <mxPoint x="429" y="306" as="sourcePoint" />
          </mxGeometry>
        </mxCell>
        <mxCell id="qQcxlYCkUIQgtwHo2wwN-20" value="&lt;div&gt;0%&amp;nbsp;&lt;/div&gt;&lt;div&gt;defense&amp;nbsp;&lt;/div&gt;&lt;div&gt;rate&lt;/div&gt;" style="strokeWidth=2;html=1;shape=mxgraph.flowchart.terminator;whiteSpace=wrap;" vertex="1" parent="1">
          <mxGeometry x="689" y="231" width="70" height="50" as="geometry" />
        </mxCell>
        <mxCell id="qQcxlYCkUIQgtwHo2wwN-21" value="One worker node has an unprotected&amp;nbsp;&lt;div&gt;kubelet ports (i.e. no authentication&amp;nbsp;&lt;/div&gt;&lt;div&gt;or authorization)&lt;/div&gt;" style="shape=trapezoid;whiteSpace=wrap;html=1;rounded=0;shadow=1;labelBackgroundColor=none;strokeWidth=1;fontFamily=Verdana;fontSize=8;align=center;flipV=1;" vertex="1" parent="1">
          <mxGeometry x="249" y="116" width="210" height="54" as="geometry" />
        </mxCell>
        <mxCell id="qQcxlYCkUIQgtwHo2wwN-22" value="" style="endArrow=none;html=1;rounded=0;entryX=0.5;entryY=1;entryDx=0;entryDy=0;" edge="1" parent="1" target="60e70716793133e9-4">
          <mxGeometry width="50" height="50" relative="1" as="geometry">
            <mxPoint x="349" y="206" as="sourcePoint" />
            <mxPoint x="409" y="326" as="targetPoint" />
            <Array as="points">
              <mxPoint x="549" y="206" />
            </Array>
          </mxGeometry>
        </mxCell>
        <mxCell id="qQcxlYCkUIQgtwHo2wwN-28" value="&lt;div&gt;100% defense&amp;nbsp;&lt;/div&gt;&lt;div&gt;rate&lt;/div&gt;" style="strokeWidth=2;html=1;shape=mxgraph.flowchart.terminator;whiteSpace=wrap;" vertex="1" parent="1">
          <mxGeometry x="384" y="328" width="70" height="50" as="geometry" />
        </mxCell>
        <mxCell id="qQcxlYCkUIQgtwHo2wwN-51" style="edgeStyle=orthogonalEdgeStyle;rounded=0;html=1;labelBackgroundColor=none;startSize=5;endArrow=classicThin;endFill=1;endSize=5;jettySize=auto;orthogonalLoop=1;strokeWidth=1;fontFamily=Verdana;fontSize=8" edge="1" parent="1" source="qQcxlYCkUIQgtwHo2wwN-52" target="qQcxlYCkUIQgtwHo2wwN-56">
          <mxGeometry relative="1" as="geometry">
            <Array as="points">
              <mxPoint x="135" y="560" />
              <mxPoint x="255" y="560" />
            </Array>
          </mxGeometry>
        </mxCell>
        <mxCell id="qQcxlYCkUIQgtwHo2wwN-52" value="&lt;div&gt;&lt;br&gt;&lt;/div&gt;&lt;div&gt;&lt;br&gt;&lt;/div&gt;&lt;div&gt;GH: least privilege security group&lt;/div&gt;&lt;div&gt;generation based on&amp;nbsp;&lt;/div&gt;&lt;div&gt;network policies&lt;br&gt;&lt;/div&gt;&lt;div&gt;&lt;br&gt;&lt;br&gt;&lt;/div&gt;" style="shape=trapezoid;whiteSpace=wrap;html=1;rounded=0;shadow=1;labelBackgroundColor=none;strokeWidth=1;fontFamily=Verdana;fontSize=8;align=center;flipV=1;" vertex="1" parent="1">
          <mxGeometry x="20" y="470" width="230" height="50" as="geometry" />
        </mxCell>
        <mxCell id="qQcxlYCkUIQgtwHo2wwN-53" style="edgeStyle=orthogonalEdgeStyle;rounded=0;html=1;labelBackgroundColor=none;startSize=5;endArrow=classicThin;endFill=1;endSize=5;jettySize=auto;orthogonalLoop=1;strokeWidth=1;fontFamily=Verdana;fontSize=8;exitX=0.567;exitY=0.02;exitDx=0;exitDy=0;exitPerimeter=0;" edge="1" parent="1" source="qQcxlYCkUIQgtwHo2wwN-65" target="qQcxlYCkUIQgtwHo2wwN-56">
          <mxGeometry relative="1" as="geometry">
            <Array as="points">
              <mxPoint x="359" y="560" />
              <mxPoint x="255" y="560" />
            </Array>
          </mxGeometry>
        </mxCell>
        <mxCell id="qQcxlYCkUIQgtwHo2wwN-54" value="Attackers gains access to Pod on cluster with N+1 nodes" style="rounded=0;whiteSpace=wrap;html=1;shadow=1;labelBackgroundColor=none;strokeWidth=1;fontFamily=Verdana;fontSize=8;align=center;" vertex="1" parent="1">
          <mxGeometry x="500" y="470" width="120" height="60" as="geometry" />
        </mxCell>
        <mxCell id="qQcxlYCkUIQgtwHo2wwN-55" value="Yes" style="edgeStyle=orthogonalEdgeStyle;rounded=0;html=1;labelBackgroundColor=none;startSize=5;endArrow=classicThin;endFill=1;endSize=5;jettySize=auto;orthogonalLoop=1;strokeWidth=1;fontFamily=Verdana;fontSize=8" edge="1" parent="1" source="qQcxlYCkUIQgtwHo2wwN-56" target="qQcxlYCkUIQgtwHo2wwN-59">
          <mxGeometry x="-0.7778" y="10" relative="1" as="geometry">
            <mxPoint as="offset" />
          </mxGeometry>
        </mxCell>
        <mxCell id="qQcxlYCkUIQgtwHo2wwN-56" value="&lt;div&gt;Is a deny-all&amp;nbsp;&lt;/div&gt;&lt;div&gt;NP enforced upon&amp;nbsp;&lt;/div&gt;&lt;div&gt;the Pod?&lt;/div&gt;" style="rhombus;whiteSpace=wrap;html=1;rounded=0;shadow=1;labelBackgroundColor=none;strokeWidth=1;fontFamily=Verdana;fontSize=8;align=center;" vertex="1" parent="1">
          <mxGeometry x="200" y="575" width="110" height="70" as="geometry" />
        </mxCell>
        <mxCell id="qQcxlYCkUIQgtwHo2wwN-57" value="Yes" style="edgeStyle=orthogonalEdgeStyle;rounded=0;html=1;labelBackgroundColor=none;startSize=5;endArrow=classicThin;endFill=1;endSize=5;jettySize=auto;orthogonalLoop=1;strokeWidth=1;fontFamily=Verdana;fontSize=8;entryX=0;entryY=0.5;entryDx=0;entryDy=0;" edge="1" parent="1" source="qQcxlYCkUIQgtwHo2wwN-59" target="qQcxlYCkUIQgtwHo2wwN-102">
          <mxGeometry x="-0.6667" y="10" relative="1" as="geometry">
            <mxPoint as="offset" />
            <mxPoint x="560" y="610" as="targetPoint" />
          </mxGeometry>
        </mxCell>
        <mxCell id="qQcxlYCkUIQgtwHo2wwN-58" value="No" style="edgeStyle=orthogonalEdgeStyle;rounded=0;html=1;labelBackgroundColor=none;startSize=5;endArrow=classicThin;endFill=1;endSize=5;jettySize=auto;orthogonalLoop=1;strokeWidth=1;fontFamily=Verdana;fontSize=8;entryX=0.5;entryY=0;entryDx=0;entryDy=0;" edge="1" parent="1" source="qQcxlYCkUIQgtwHo2wwN-59">
          <mxGeometry x="-1" y="-10" relative="1" as="geometry">
            <mxPoint x="430" y="680" as="targetPoint" />
            <Array as="points" />
            <mxPoint as="offset" />
          </mxGeometry>
        </mxCell>
        <mxCell id="qQcxlYCkUIQgtwHo2wwN-59" value="&lt;div&gt;Does an NP&amp;nbsp;&lt;/div&gt;&lt;div&gt;allow the Pod to talk&amp;nbsp;&lt;/div&gt;&lt;div&gt;to kubelet port of&amp;nbsp;&lt;/div&gt;&lt;div&gt;any node?&lt;/div&gt;" style="rhombus;whiteSpace=wrap;html=1;rounded=0;shadow=1;labelBackgroundColor=none;strokeWidth=1;fontFamily=Verdana;fontSize=8;align=center;" vertex="1" parent="1">
          <mxGeometry x="370" y="570" width="120" height="80" as="geometry" />
        </mxCell>
        <mxCell id="qQcxlYCkUIQgtwHo2wwN-63" value="No" style="edgeStyle=orthogonalEdgeStyle;rounded=0;html=1;labelBackgroundColor=none;startSize=5;endArrow=classicThin;endFill=1;endSize=5;jettySize=auto;orthogonalLoop=1;strokeWidth=1;fontFamily=Verdana;fontSize=8;entryX=0.5;entryY=0;entryDx=0;entryDy=0;exitX=0.5;exitY=1;exitDx=0;exitDy=0;" edge="1" parent="1" source="qQcxlYCkUIQgtwHo2wwN-56" target="qQcxlYCkUIQgtwHo2wwN-72">
          <mxGeometry x="-1" y="-10" relative="1" as="geometry">
            <mxPoint x="440" y="690" as="targetPoint" />
            <Array as="points" />
            <mxPoint as="offset" />
            <mxPoint x="440" y="660" as="sourcePoint" />
          </mxGeometry>
        </mxCell>
        <mxCell id="qQcxlYCkUIQgtwHo2wwN-65" value="One worker node has an unprotected&amp;nbsp;&lt;div&gt;kubelet ports (i.e. no authentication&amp;nbsp;&lt;/div&gt;&lt;div&gt;or authorization)&lt;/div&gt;" style="shape=trapezoid;whiteSpace=wrap;html=1;rounded=0;shadow=1;labelBackgroundColor=none;strokeWidth=1;fontFamily=Verdana;fontSize=8;align=center;flipV=1;" vertex="1" parent="1">
          <mxGeometry x="260" y="470" width="210" height="54" as="geometry" />
        </mxCell>
        <mxCell id="qQcxlYCkUIQgtwHo2wwN-66" value="" style="endArrow=none;html=1;rounded=0;entryX=0.5;entryY=1;entryDx=0;entryDy=0;" edge="1" parent="1" target="qQcxlYCkUIQgtwHo2wwN-54">
          <mxGeometry width="50" height="50" relative="1" as="geometry">
            <mxPoint x="360" y="560" as="sourcePoint" />
            <mxPoint x="420" y="680" as="targetPoint" />
            <Array as="points">
              <mxPoint x="560" y="560" />
            </Array>
          </mxGeometry>
        </mxCell>
        <mxCell id="qQcxlYCkUIQgtwHo2wwN-70" value="&lt;div&gt;100% defense&amp;nbsp;&lt;/div&gt;&lt;div&gt;rate&lt;/div&gt;" style="strokeWidth=2;html=1;shape=mxgraph.flowchart.terminator;whiteSpace=wrap;" vertex="1" parent="1">
          <mxGeometry x="395" y="680" width="70" height="50" as="geometry" />
        </mxCell>
        <mxCell id="qQcxlYCkUIQgtwHo2wwN-72" value="&lt;div&gt;Does an NP&amp;nbsp;&lt;/div&gt;&lt;div&gt;allow the Pod or any&lt;/div&gt;&lt;div&gt;other co-located Pod&amp;nbsp;&lt;/div&gt;&lt;div&gt;&amp;nbsp;to talk to kubelet&amp;nbsp;&lt;/div&gt;&lt;div&gt;port of&amp;nbsp;&lt;/div&gt;&lt;div&gt;any node?&lt;/div&gt;" style="rhombus;whiteSpace=wrap;html=1;rounded=0;shadow=1;labelBackgroundColor=none;strokeWidth=1;fontFamily=Verdana;fontSize=8;align=center;" vertex="1" parent="1">
          <mxGeometry x="182.5" y="680" width="145" height="100" as="geometry" />
        </mxCell>
        <mxCell id="qQcxlYCkUIQgtwHo2wwN-80" value="No" style="edgeStyle=orthogonalEdgeStyle;rounded=0;html=1;labelBackgroundColor=none;startSize=5;endArrow=classicThin;endFill=1;endSize=5;jettySize=auto;orthogonalLoop=1;strokeWidth=1;fontFamily=Verdana;fontSize=8;exitX=0;exitY=0.5;exitDx=0;exitDy=0;entryX=1;entryY=0.5;entryDx=0;entryDy=0;" edge="1" parent="1" source="qQcxlYCkUIQgtwHo2wwN-72" target="qQcxlYCkUIQgtwHo2wwN-114">
          <mxGeometry x="-0.7778" y="10" relative="1" as="geometry">
            <mxPoint as="offset" />
            <mxPoint x="320" y="620" as="sourcePoint" />
            <mxPoint x="130" y="730" as="targetPoint" />
          </mxGeometry>
        </mxCell>
        <mxCell id="qQcxlYCkUIQgtwHo2wwN-89" value="&lt;div&gt;Does attacker&amp;nbsp;&lt;/div&gt;&lt;div&gt;have credentials for kubelet port&lt;/div&gt;" style="rhombus;whiteSpace=wrap;html=1;rounded=0;shadow=1;labelBackgroundColor=none;strokeWidth=1;fontFamily=Verdana;fontSize=8;align=center;" vertex="1" parent="1">
          <mxGeometry x="550" y="221" width="110" height="70" as="geometry" />
        </mxCell>
        <mxCell id="qQcxlYCkUIQgtwHo2wwN-93" value="Yes" style="edgeStyle=orthogonalEdgeStyle;rounded=0;html=1;labelBackgroundColor=none;startSize=5;endArrow=classicThin;endFill=1;endSize=5;jettySize=auto;orthogonalLoop=1;strokeWidth=1;fontFamily=Verdana;fontSize=8;exitX=1;exitY=0.5;exitDx=0;exitDy=0;entryX=0;entryY=0.5;entryDx=0;entryDy=0;entryPerimeter=0;" edge="1" parent="1" source="qQcxlYCkUIQgtwHo2wwN-89" target="qQcxlYCkUIQgtwHo2wwN-20">
          <mxGeometry x="-0.6667" y="10" relative="1" as="geometry">
            <mxPoint as="offset" />
            <mxPoint x="530" y="310" as="sourcePoint" />
            <mxPoint x="559" y="266" as="targetPoint" />
          </mxGeometry>
        </mxCell>
        <mxCell id="qQcxlYCkUIQgtwHo2wwN-96" value="&lt;div&gt;(N-1)/N &lt;br&gt;&lt;/div&gt;&lt;div&gt;defense&lt;/div&gt;&lt;div&gt;rate&lt;/div&gt;" style="strokeWidth=2;html=1;shape=mxgraph.flowchart.terminator;whiteSpace=wrap;" vertex="1" parent="1">
          <mxGeometry x="569" y="328" width="70" height="50" as="geometry" />
        </mxCell>
        <mxCell id="qQcxlYCkUIQgtwHo2wwN-99" value="No" style="edgeStyle=orthogonalEdgeStyle;rounded=0;html=1;labelBackgroundColor=none;startSize=5;endArrow=classicThin;endFill=1;endSize=5;jettySize=auto;orthogonalLoop=1;strokeWidth=1;fontFamily=Verdana;fontSize=8;entryX=0.5;entryY=0;entryDx=0;entryDy=0;exitX=0.5;exitY=1;exitDx=0;exitDy=0;entryPerimeter=0;" edge="1" parent="1" source="qQcxlYCkUIQgtwHo2wwN-89" target="qQcxlYCkUIQgtwHo2wwN-96">
          <mxGeometry x="-1" y="-10" relative="1" as="geometry">
            <mxPoint x="429" y="336" as="targetPoint" />
            <Array as="points" />
            <mxPoint as="offset" />
            <mxPoint x="429" y="306" as="sourcePoint" />
          </mxGeometry>
        </mxCell>
        <mxCell id="qQcxlYCkUIQgtwHo2wwN-101" value="&lt;div&gt;0% &lt;br&gt;&lt;/div&gt;&lt;div&gt;defense&amp;nbsp;&lt;/div&gt;&lt;div&gt;rate&lt;/div&gt;" style="strokeWidth=2;html=1;shape=mxgraph.flowchart.terminator;whiteSpace=wrap;" vertex="1" parent="1">
          <mxGeometry x="690" y="585" width="70" height="50" as="geometry" />
        </mxCell>
        <mxCell id="qQcxlYCkUIQgtwHo2wwN-102" value="&lt;div&gt;Does attacker&amp;nbsp;&lt;/div&gt;&lt;div&gt;have credentials for kubelet port&lt;/div&gt;" style="rhombus;whiteSpace=wrap;html=1;rounded=0;shadow=1;labelBackgroundColor=none;strokeWidth=1;fontFamily=Verdana;fontSize=8;align=center;" vertex="1" parent="1">
          <mxGeometry x="551" y="575" width="110" height="70" as="geometry" />
        </mxCell>
        <mxCell id="qQcxlYCkUIQgtwHo2wwN-104" value="&lt;div&gt;(N-1)/N &lt;br&gt;&lt;/div&gt;&lt;div&gt;defense&lt;/div&gt;&lt;div&gt;rate&lt;/div&gt;" style="strokeWidth=2;html=1;shape=mxgraph.flowchart.terminator;whiteSpace=wrap;" vertex="1" parent="1">
          <mxGeometry x="570" y="681" width="70" height="50" as="geometry" />
        </mxCell>
        <mxCell id="qQcxlYCkUIQgtwHo2wwN-105" value="No" style="edgeStyle=orthogonalEdgeStyle;rounded=0;html=1;labelBackgroundColor=none;startSize=5;endArrow=classicThin;endFill=1;endSize=5;jettySize=auto;orthogonalLoop=1;strokeWidth=1;fontFamily=Verdana;fontSize=8;entryX=0.5;entryY=0;entryDx=0;entryDy=0;exitX=0.5;exitY=1;exitDx=0;exitDy=0;entryPerimeter=0;" edge="1" parent="1" source="qQcxlYCkUIQgtwHo2wwN-102" target="qQcxlYCkUIQgtwHo2wwN-104">
          <mxGeometry x="-1" y="-10" relative="1" as="geometry">
            <mxPoint x="430" y="689" as="targetPoint" />
            <Array as="points" />
            <mxPoint as="offset" />
            <mxPoint x="430" y="659" as="sourcePoint" />
          </mxGeometry>
        </mxCell>
        <mxCell id="qQcxlYCkUIQgtwHo2wwN-111" value="Yes" style="edgeStyle=orthogonalEdgeStyle;rounded=0;html=1;labelBackgroundColor=none;startSize=5;endArrow=classicThin;endFill=1;endSize=5;jettySize=auto;orthogonalLoop=1;strokeWidth=1;fontFamily=Verdana;fontSize=8;exitX=1;exitY=0.5;exitDx=0;exitDy=0;entryX=0;entryY=0.5;entryDx=0;entryDy=0;entryPerimeter=0;" edge="1" parent="1" source="qQcxlYCkUIQgtwHo2wwN-102" target="qQcxlYCkUIQgtwHo2wwN-101">
          <mxGeometry x="-0.6667" y="10" relative="1" as="geometry">
            <mxPoint as="offset" />
            <mxPoint x="670" y="266" as="sourcePoint" />
            <mxPoint x="699" y="266" as="targetPoint" />
          </mxGeometry>
        </mxCell>
        <mxCell id="qQcxlYCkUIQgtwHo2wwN-113" value="&lt;div&gt;Yes&lt;/div&gt;" style="edgeStyle=orthogonalEdgeStyle;rounded=0;html=1;labelBackgroundColor=none;startSize=5;endArrow=classicThin;endFill=1;endSize=5;jettySize=auto;orthogonalLoop=1;strokeWidth=1;fontFamily=Verdana;fontSize=8;exitX=0.5;exitY=1;exitDx=0;exitDy=0;" edge="1" parent="1" source="qQcxlYCkUIQgtwHo2wwN-72">
          <mxGeometry x="-1" y="-10" relative="1" as="geometry">
            <mxPoint x="550" y="610" as="targetPoint" />
            <Array as="points">
              <mxPoint x="255" y="810" />
              <mxPoint x="550" y="810" />
            </Array>
            <mxPoint as="offset" />
            <mxPoint x="260" y="778" as="sourcePoint" />
          </mxGeometry>
        </mxCell>
        <mxCell id="qQcxlYCkUIQgtwHo2wwN-114" value="&lt;div&gt;Does an NP&amp;nbsp;&lt;/div&gt;&lt;div&gt;allow a co-located&amp;nbsp;&lt;/div&gt;&lt;div&gt;Pod to talk to kubelet&amp;nbsp;&lt;/div&gt;&lt;div&gt;port of another Pod&amp;nbsp;&lt;/div&gt;&lt;div&gt;on another&amp;nbsp;&lt;/div&gt;&lt;div&gt;worker node&lt;/div&gt;" style="rhombus;whiteSpace=wrap;html=1;rounded=0;shadow=1;labelBackgroundColor=none;strokeWidth=1;fontFamily=Verdana;fontSize=8;align=center;" vertex="1" parent="1">
          <mxGeometry x="20" y="680" width="130" height="100" as="geometry" />
        </mxCell>
        <mxCell id="qQcxlYCkUIQgtwHo2wwN-115" value="No" style="edgeStyle=orthogonalEdgeStyle;rounded=0;html=1;labelBackgroundColor=none;startSize=5;endArrow=classicThin;endFill=1;endSize=5;jettySize=auto;orthogonalLoop=1;strokeWidth=1;fontFamily=Verdana;fontSize=8;exitX=0.5;exitY=0;exitDx=0;exitDy=0;entryX=0.5;entryY=1;entryDx=0;entryDy=0;entryPerimeter=0;" edge="1" parent="1" source="qQcxlYCkUIQgtwHo2wwN-114" target="qQcxlYCkUIQgtwHo2wwN-116">
          <mxGeometry x="-0.7778" y="10" relative="1" as="geometry">
            <mxPoint as="offset" />
            <mxPoint x="193" y="740" as="sourcePoint" />
            <mxPoint x="160" y="740" as="targetPoint" />
          </mxGeometry>
        </mxCell>
        <mxCell id="qQcxlYCkUIQgtwHo2wwN-116" value="&lt;div&gt;100% defense&amp;nbsp;&lt;/div&gt;&lt;div&gt;rate&lt;/div&gt;" style="strokeWidth=2;html=1;shape=mxgraph.flowchart.terminator;whiteSpace=wrap;" vertex="1" parent="1">
          <mxGeometry x="50" y="595" width="70" height="50" as="geometry" />
        </mxCell>
        <mxCell id="qQcxlYCkUIQgtwHo2wwN-120" value="&lt;div&gt;(N-1)/N&lt;br&gt;&lt;/div&gt;&lt;div&gt;defense&amp;nbsp;&lt;/div&gt;&lt;div&gt;rate&lt;/div&gt;" style="strokeWidth=2;html=1;shape=mxgraph.flowchart.terminator;whiteSpace=wrap;" vertex="1" parent="1">
          <mxGeometry x="169" y="810" width="70" height="50" as="geometry" />
        </mxCell>
        <mxCell id="qQcxlYCkUIQgtwHo2wwN-121" value="&lt;div&gt;Does attacker&amp;nbsp;&lt;/div&gt;&lt;div&gt;have credentials for kubelet port&lt;/div&gt;" style="rhombus;whiteSpace=wrap;html=1;rounded=0;shadow=1;labelBackgroundColor=none;strokeWidth=1;fontFamily=Verdana;fontSize=8;align=center;" vertex="1" parent="1">
          <mxGeometry x="28" y="800" width="110" height="70" as="geometry" />
        </mxCell>
        <mxCell id="qQcxlYCkUIQgtwHo2wwN-122" value="&lt;div&gt;(N&lt;sup&gt;2&lt;/sup&gt;-1)/N&lt;sup&gt;2&lt;/sup&gt; &lt;/div&gt;&lt;div&gt;defense&lt;/div&gt;&lt;div&gt;rate&lt;/div&gt;" style="strokeWidth=2;html=1;shape=mxgraph.flowchart.terminator;whiteSpace=wrap;" vertex="1" parent="1">
          <mxGeometry x="47" y="933" width="70" height="50" as="geometry" />
        </mxCell>
        <mxCell id="qQcxlYCkUIQgtwHo2wwN-123" value="No" style="edgeStyle=orthogonalEdgeStyle;rounded=0;html=1;labelBackgroundColor=none;startSize=5;endArrow=classicThin;endFill=1;endSize=5;jettySize=auto;orthogonalLoop=1;strokeWidth=1;fontFamily=Verdana;fontSize=8;entryX=0.5;entryY=0;entryDx=0;entryDy=0;entryPerimeter=0;exitX=0.5;exitY=1;exitDx=0;exitDy=0;" edge="1" parent="1" source="qQcxlYCkUIQgtwHo2wwN-121" target="qQcxlYCkUIQgtwHo2wwN-122">
          <mxGeometry x="-0.6998" y="-13" relative="1" as="geometry">
            <mxPoint x="-91" y="914" as="targetPoint" />
            <Array as="points">
              <mxPoint x="84" y="870" />
            </Array>
            <mxPoint as="offset" />
            <mxPoint x="20" y="880" as="sourcePoint" />
          </mxGeometry>
        </mxCell>
        <mxCell id="qQcxlYCkUIQgtwHo2wwN-124" value="Yes" style="edgeStyle=orthogonalEdgeStyle;rounded=0;html=1;labelBackgroundColor=none;startSize=5;endArrow=classicThin;endFill=1;endSize=5;jettySize=auto;orthogonalLoop=1;strokeWidth=1;fontFamily=Verdana;fontSize=8;exitX=1;exitY=0.5;exitDx=0;exitDy=0;entryX=0;entryY=0.5;entryDx=0;entryDy=0;entryPerimeter=0;" edge="1" parent="1" source="qQcxlYCkUIQgtwHo2wwN-121" target="qQcxlYCkUIQgtwHo2wwN-120">
          <mxGeometry x="-0.6667" y="10" relative="1" as="geometry">
            <mxPoint as="offset" />
            <mxPoint x="149" y="491" as="sourcePoint" />
            <mxPoint x="178" y="491" as="targetPoint" />
          </mxGeometry>
        </mxCell>
        <mxCell id="qQcxlYCkUIQgtwHo2wwN-125" value="Yes" style="edgeStyle=orthogonalEdgeStyle;rounded=0;html=1;labelBackgroundColor=none;startSize=5;endArrow=classicThin;endFill=1;endSize=5;jettySize=auto;orthogonalLoop=1;strokeWidth=1;fontFamily=Verdana;fontSize=8;exitX=0.5;exitY=1;exitDx=0;exitDy=0;" edge="1" parent="1" source="qQcxlYCkUIQgtwHo2wwN-114">
          <mxGeometry x="-1" y="-15" relative="1" as="geometry">
            <mxPoint as="offset" />
            <mxPoint x="150" y="845" as="sourcePoint" />
            <mxPoint x="85" y="800" as="targetPoint" />
          </mxGeometry>
        </mxCell>
      </root>
    </mxGraphModel>
  </diagram>
</mxfile>
